<?xml version="1.0" encoding="UTF-8"?>
<!-- Generator: visioncortex VTracer 0.6.4 -->
<svg version="1.1" xmlns="http://www.w3.org/2000/svg" width="1249" height="304">
<path d="M0 0 C0.86415527 -0.01409912 1.72831055 -0.02819824 2.61865234 -0.04272461 C9.3688856 0.00889867 13.57943763 1.34599604 18.625 6.0625 C19.676875 7.2071875 19.676875 7.2071875 20.75 8.375 C21.265625 7.611875 21.78125 6.84875 22.3125 6.0625 C26.17715388 1.80147136 30.46529057 0.27708008 36.08984375 -0.05859375 C37.62230163 -0.07563563 39.15501339 -0.07672561 40.6875 -0.0625 C41.82735352 -0.0924707 41.82735352 -0.0924707 42.99023438 -0.12304688 C48.62840738 -0.11823204 53.08348731 1.13614811 57.75 4.375 C62.24431011 10.02169732 62.89603412 14.42183844 62.86352539 21.42651367 C62.86367142 22.24625168 62.86381744 23.06598969 62.8639679 23.91056824 C62.86327096 26.62139528 62.85548878 29.3321537 62.84765625 32.04296875 C62.84579129 33.92198143 62.84436776 35.8009946 62.84336853 37.68000793 C62.83954948 42.62675315 62.82972438 47.57346902 62.81866455 52.52020264 C62.8084373 57.56750085 62.80386809 62.61480379 62.79882812 67.66210938 C62.78810159 77.56641914 62.77103248 87.47070713 62.75 97.375 C64.07 97.375 65.39 97.375 66.75 97.375 C66.71519531 96.34761719 66.68039062 95.32023437 66.64453125 94.26171875 C66.2565201 77.98888577 69.82789908 64.77893105 81.30078125 52.69921875 C92.20241564 42.35396761 105.86789268 37.05997903 120.98632812 37.4296875 C132.81395642 38.10047876 142.04069514 40.31368738 151.75 47.375 C152.54277344 47.94734375 153.33554687 48.5196875 154.15234375 49.109375 C157.10253393 51.6824732 158.9525723 54.33494325 161.0625 57.625 C162.10857422 59.24148437 162.10857422 59.24148437 163.17578125 60.890625 C163.69527344 61.71046875 164.21476563 62.5303125 164.75 63.375 C165.13929688 62.7459375 165.52859375 62.116875 165.9296875 61.46875 C173.62338495 49.69774745 184.63877919 41.65867269 198.546875 38.71875 C212.62207559 36.52261941 227.7883329 36.7338886 240.03515625 44.8984375 C241.98116017 46.3464622 243.86399049 47.85051194 245.75 49.375 C246.74 50.035 247.73 50.695 248.75 51.375 C249.0903125 50.01375 249.0903125 50.01375 249.4375 48.625 C250.97655418 44.8140087 252.27049335 43.51015181 255.75 41.375 C257.74162697 40.9948249 259.74185858 40.65514128 261.75 40.375 C261.70359375 39.3128125 261.6571875 38.250625 261.609375 37.15625 C261.13463622 21.82689847 261.13463622 21.82689847 265.75 16.375 C271.09506697 11.53898703 277.52790208 10.42784963 284.55859375 10.33984375 C291.9597264 10.7607126 297.63214645 12.50329278 303.125 17.5625 C307.22245952 24.65425686 307.01876946 32.3865744 306.75 40.375 C307.45125 40.32859375 308.1525 40.2821875 308.875 40.234375 C315.30640687 39.98970191 320.59568761 40.19319938 325.75 44.375 C331.62789324 51.89323553 331.26938545 60.31880648 330.75 69.375 C329.68105447 74.9554007 327.1784511 78.79006339 322.75 82.375 C317.37369944 85.00381929 312.64415136 84.51702774 306.75 84.375 C306.75 88.665 306.75 92.955 306.75 97.375 C308.11125 97.4575 309.4725 97.54 310.875 97.625 C315.44372241 98.14857415 318.20204515 99.32210862 321.75 102.375 C326.94960284 108.97990091 327.37755112 115.21683539 326.75 123.375 C325.68753631 130.01296122 323.82581041 134.1693836 318.46875 138.31640625 C311.00759242 142.91180104 297.04007343 141.39196605 288.75390625 139.69140625 C278.6946154 136.83594206 270.94539246 131.56684819 265.75 122.375 C259.87617865 110.59087393 261.36127605 97.16551297 261.75 84.375 C260.76 84.375 259.77 84.375 258.75 84.375 C258.67523437 85.0040625 258.60046875 85.633125 258.5234375 86.28125 C257.5172205 92.83152539 255.57014562 97.6858366 250.75 102.375 C250.09 102.375 249.43 102.375 248.75 102.375 C249.09933594 103.06207031 249.44867187 103.74914062 249.80859375 104.45703125 C250.26363281 105.35808594 250.71867187 106.25914062 251.1875 107.1875 C251.63996094 108.08082031 252.09242188 108.97414063 252.55859375 109.89453125 C255.16467151 115.3202997 255.88017795 120.7519724 254.06640625 126.56640625 C251.1613946 132.9188591 246.82535076 136.58240184 240.625 139.5625 C224.29074808 145.62317266 202.6388306 145.03414047 186.75 138.375 C175.82449437 132.8476417 168.82985823 124.82475633 162.75 114.375 C162.78480469 115.09945312 162.81960938 115.82390625 162.85546875 116.5703125 C163.04665983 123.39856519 162.90109485 127.95021851 158.0859375 133.18359375 C151.07521793 139.9010362 143.09170066 141.72237488 133.625 142.625 C132.39112549 142.74512451 132.39112549 142.74512451 131.13232422 142.86767578 C113.55465876 144.38832925 96.63284217 141.62769088 82.6875 130.1875 C80.96484375 128.70703125 80.96484375 128.70703125 79.75 127.375 C79.75 126.715 79.75 126.055 79.75 125.375 C79.09 125.375 78.43 125.375 77.75 125.375 C77.688125 126.40625 77.62625 127.4375 77.5625 128.5 C76.5440677 133.35713866 75.22334741 134.90165259 71.75 138.375 C62.87134963 143.89052523 49.36634001 141.38746935 39.75 139.375 C32.80406665 137.27716753 26.44480786 133.63616492 22.5 127.3984375 C16.20168662 113.92189932 17.46080891 96.86668708 17.75 82.375 C17.13125 82.705 16.5125 83.035 15.875 83.375 C11.48788488 84.77887684 7.31848573 84.53467523 2.75 84.375 C2.76571045 85.50405762 2.7814209 86.63311523 2.79760742 87.79638672 C2.85233425 92.02694428 2.88650402 96.2574712 2.91479492 100.48828125 C2.92978489 102.31157715 2.95018384 104.1348376 2.97631836 105.95800781 C3.29810553 129.0004932 3.29810553 129.0004932 -1.80029297 135.28637695 C-6.91251267 140.44377441 -12.6478129 141.30890482 -19.65625 141.4375 C-25.99395873 141.2208262 -31.20074267 140.64839663 -36.6015625 137.21484375 C-41.98417854 131.20723201 -42.81989614 124.99637583 -42.640625 117.1875 C-42.63496521 116.24438965 -42.62930542 115.3012793 -42.62347412 114.32958984 C-42.60124585 111.34419022 -42.5510756 108.36003126 -42.5 105.375 C-42.47991746 103.33986119 -42.46166978 101.30470341 -42.4453125 99.26953125 C-42.40142557 94.30421609 -42.33249314 89.33981773 -42.25 84.375 C-42.87140869 84.18454102 -43.49281738 83.99408203 -44.13305664 83.79785156 C-45.35303345 83.41064941 -45.35303345 83.41064941 -46.59765625 83.015625 C-47.40468994 82.76329102 -48.21172363 82.51095703 -49.04321289 82.25097656 C-52.26963001 80.97026137 -53.55047223 79.36616888 -55.25 76.375 C-58.32723615 69.14349505 -58.50144141 60.16430008 -56.52734375 52.609375 C-54.67197321 48.07235554 -52.60664331 44.86451046 -48.25 42.375 C-44.9375 41.625 -44.9375 41.625 -42.25 41.375 C-42.3325 40.116875 -42.415 38.85875 -42.5 37.5625 C-42.43385261 26.99545375 -37.17604128 18.06529411 -30.25 10.375 C-21.00493766 2.09674157 -12.07562593 0.14694515 0 0 Z M16.75 39.375 C16.75 42.375 16.75 42.375 16.75 42.375 Z M158.75 101.375 C157.76 102.86 157.76 102.86 156.75 104.375 C158.07 106.685 159.39 108.995 160.75 111.375 C162.06223496 107.43829512 160.99296256 105.25011856 159.75 101.375 C159.42 101.375 159.09 101.375 158.75 101.375 Z " fill="#030303" transform="translate(619.25,67.625)"/>
<path d="M0 0 C7.47322457 5.03630352 11.91879721 11.36950138 14.609375 19.94140625 C15.10372738 22.5466433 15.2084019 25.03562136 15.25 27.6875 C15.27578125 28.66074219 15.3015625 29.63398437 15.328125 30.63671875 C14.41334512 40.0132125 9.66580846 47.44838964 4.875 55.375 C3.59921155 57.50640706 2.32566342 59.63915719 1.0546875 61.7734375 C0.21139893 63.17215088 0.21139893 63.17215088 -0.64892578 64.59912109 C-2.11327724 67.02372108 -2.11327724 67.02372108 -3 70 C-2.17113281 69.67644531 -1.34226562 69.35289062 -0.48828125 69.01953125 C3.34541303 67.89904502 6.85510337 67.65455307 10.8125 67.6875 C11.51955078 67.69313965 12.22660156 67.6987793 12.95507812 67.70458984 C23.36289348 67.94590971 30.32757484 71.41927687 37.69140625 78.6640625 C45.30210361 87.01866261 47.38879457 95.2077036 47.2734375 106.328125 C46.57638252 115.6885776 42.55891495 123.36346476 36 130 C27.62579843 136.99636219 19.12866446 139.63888189 8.27734375 139.34765625 C-2.11416669 138.24533869 -10.71807734 133.32938563 -17.25 125.25 C-21.14783331 119.72718442 -23.40890934 113.5292247 -25 107 C-25.27674561 107.48355957 -25.55349121 107.96711914 -25.83862305 108.46533203 C-27.11561619 110.68870864 -28.40147558 112.9068359 -29.6875 115.125 C-30.12255859 115.88554687 -30.55761719 116.64609375 -31.00585938 117.4296875 C-36.65089466 127.13078517 -43.17380487 134.424411 -54.4375 137.4375 C-64.72101792 139.15141965 -73.34169384 136.68974405 -82 131 C-84.81555977 128.58955674 -86.9484412 126.08019553 -89 123 C-89.43183594 122.35675781 -89.86367188 121.71351563 -90.30859375 121.05078125 C-94.01501512 114.31766284 -94.34804284 105.48546644 -93 98 C-90.57106974 90.73940854 -86.381225 84.06892458 -82.625 77.4375 C-82.01068115 76.34687256 -81.3963623 75.25624512 -80.76342773 74.13256836 C-75.46484943 64.75556353 -70.05024975 55.44820393 -64.59765625 46.16015625 C-62.0349782 41.78836219 -59.50580619 37.39844419 -56.99609375 32.99609375 C-56.32224898 31.81693891 -55.64833991 30.63782082 -54.97436523 29.45874023 C-53.69482822 27.21721669 -52.4193407 24.97337476 -51.14868164 22.72680664 C-44.47564969 11.05703776 -38.18589002 1.01808993 -24.890625 -3.3046875 C-16.06909417 -5.42662329 -8.01947417 -4.19954712 0 0 Z " fill="#010101" transform="translate(1070,78)"/>
<path d="M0 0 C7.23883188 5.81744181 10.21360396 13.48708698 11.75 22.375 C12.00261958 25.23266414 12.03431318 28.06545999 12.0246582 30.93310547 C12.02976913 31.73605042 12.03488007 32.53899536 12.04014587 33.36627197 C12.05392091 35.99165532 12.05309426 38.61677256 12.05078125 41.2421875 C12.05467488 43.08627416 12.05901091 44.93035994 12.06376648 46.77444458 C12.07120277 50.629119 12.07095632 54.48370179 12.06567383 58.33837891 C12.05988333 63.25278062 12.07681274 68.16680494 12.1000185 73.08114433 C12.11482423 76.88695429 12.11561826 80.69267479 12.11250877 84.49850845 C12.11301857 86.30921297 12.11819146 88.11992295 12.12832069 89.93059921 C12.19939294 104.41060727 11.7424654 116.27917293 1.05078125 127.09375 C-5.5623367 133.15701319 -13.01038749 135.75520888 -22.015625 135.5859375 C-30.91911856 134.7453979 -38.77700296 130.91636162 -45.0390625 124.55859375 C-53.67820781 114.02564565 -52.69600375 101.3657773 -52.6484375 88.5 C-52.65046196 86.56526581 -52.65337648 84.63053238 -52.65713501 82.69580078 C-52.66154085 78.65454799 -52.65518358 74.61349506 -52.64111328 70.57226562 C-52.62402253 65.41452115 -52.63387307 60.25724515 -52.65183067 55.09951782 C-52.66271566 51.10844447 -52.6592006 47.11748061 -52.6514473 43.12640381 C-52.64945831 41.22556502 -52.65185838 39.324716 -52.65888596 37.42388916 C-52.73126361 12.34963253 -52.73126361 12.34963253 -43.25 2.375 C-30.52535007 -9.46375658 -14.16592202 -9.44394802 0 0 Z " fill="#FB30AA" transform="translate(1177.25,78.625)"/>
<path d="M0 0 C8.58 0 17.16 0 26 0 C26.33 12.87 26.66 25.74 27 39 C29.31 37.35 31.62 35.7 34 34 C46.29838347 29.18258508 57.97934109 30.33931649 70.1171875 34.7734375 C81.99736456 39.97399694 88.29013265 49.43417895 93 61 C94.38730979 65.66358249 94.2230205 70.29566951 94.25 75.125 C94.270625 76.02476562 94.29125 76.92453125 94.3125 77.8515625 C94.37978572 89.55927706 90.69509089 99.8303182 82.703125 108.48828125 C73.55013383 117.17225269 63.68597446 120.85025614 51.125 121.3125 C40.84652302 121.03776084 32.33297561 118.33297561 25 111 C24.67 113.64 24.34 116.28 24 119 C16.08 119 8.16 119 0 119 C0 79.73 0 40.46 0 0 Z M29.6875 60.25 C25.44608658 67.16193299 23.81393617 74.29700973 25.46875 82.25390625 C27.41698416 89.1075157 30.91696711 93.66892635 36.5625 97.9375 C43.20607718 99.99096931 50.92734439 100.29701623 57.4375 97.5625 C62.76422424 94.4251497 66.08528442 88.74414674 68 83 C68.7880901 72.83234571 68.22717432 66.00586433 61.625 58.1875 C55.66433495 53.22027912 50.85786973 52.3986428 43.19921875 52.58203125 C37.27485188 53.35603278 33.85485566 56.19527558 29.6875 60.25 Z " fill="#000000" transform="translate(194,81)"/>
<path d="M0 0 C7.6733874 6.10383088 13.16577749 12.25279624 14.75 22.1875 C15.37580139 29.6253034 15.3594393 36.03664048 10.75 42.1875 C7.08251735 45.59301961 4.64187297 47.31591878 -0.33251953 47.30102539 C-1.59360031 47.30091209 -1.59360031 47.30091209 -2.88015747 47.30079651 C-4.24272171 47.29305458 -4.24272171 47.29305458 -5.6328125 47.28515625 C-6.56221649 47.2837413 -7.49162048 47.28232635 -8.44918823 47.28086853 C-11.42449124 47.27526053 -14.39971964 47.26270668 -17.375 47.25 C-19.38932183 47.24498603 -21.40364484 47.24042295 -23.41796875 47.23632812 C-28.36200802 47.2252885 -33.30599135 47.20801849 -38.25 47.1875 C-36.50849117 52.0541477 -34.99846688 53.85836373 -30.25 56.1875 C-26.91884545 56.71895183 -23.67877955 56.70212836 -20.3125 56.625 C-19.44431641 56.63208984 -18.57613281 56.63917969 -17.68164062 56.64648438 C-12.06916792 56.59133536 -8.29316949 55.59143199 -3.25 53.1875 C0.375 53.125 0.375 53.125 3.75 54.1875 C7.89358996 58.33108996 10.43709816 61.77368577 11.1875 67.5625 C10.64826605 72.03043842 9.17381491 74.41964963 5.75 77.1875 C-5.48972283 84.13488773 -23.69310682 84.03921312 -36.4296875 81.80517578 C-47.30544554 79.11578996 -56.02493127 73.2548468 -61.90234375 63.7265625 C-69.03920328 50.28030542 -71.50328066 37.96605952 -67.2890625 23.0390625 C-62.53499242 9.99217844 -53.35107026 1.96843361 -41.0546875 -3.8515625 C-27.69815467 -8.83117578 -12.15769686 -6.78025402 0 0 Z " fill="#FBFBFB" transform="translate(763.25,119.8125)"/>
<path d="M0 0 C8.12120597 5.85415554 13.04318715 12.46985908 15.3125 22.3125 C16.28760399 29.60064841 15.51186561 36.13545151 11.3125 42.3125 C7.1271506 45.72911176 3.59836717 47.44261036 -1.79174805 47.42602539 C-3.0226844 47.42591209 -3.0226844 47.42591209 -4.27848816 47.42579651 C-5.6004998 47.41805458 -5.6004998 47.41805458 -6.94921875 47.41015625 C-7.85501175 47.4087413 -8.76080475 47.40732635 -9.69404602 47.40586853 C-12.58773091 47.40027001 -15.48133849 47.38771781 -18.375 47.375 C-20.33658742 47.36998481 -22.29817606 47.36542193 -24.25976562 47.36132812 C-29.06904021 47.35030107 -33.878257 47.33303747 -38.6875 47.3125 C-35.74070561 51.95305305 -33.9853687 54.47139669 -28.6875 56.3125 C-25.71470445 56.70991733 -22.80803484 56.73250804 -19.8125 56.6875 C-19.04808594 56.69910156 -18.28367187 56.71070313 -17.49609375 56.72265625 C-11.91058176 56.69420712 -7.84633787 55.41241157 -2.6875 53.3125 C1.07721304 53.11777346 3.15039725 53.34536371 6.08203125 55.78515625 C9.43282183 59.60678391 10.76688591 62.91956246 11.0625 68 C10.80252489 71.84126482 10.48420769 73.0819211 8.125 76.25 C-5.08853442 84.59218533 -22.54149085 83.89186248 -37.375 81.1875 C-47.78291894 78.52701421 -55.50273442 73.10065243 -61.6875 64.3125 C-68.49647824 52.14989765 -70.7777786 39.17536796 -67.8828125 25.515625 C-64.30856848 14.22594388 -56.90618258 5.33793391 -46.6875 -0.6875 C-31.97723101 -7.60867043 -14.19660676 -8.71263325 0 0 Z " fill="#FBFBFB" transform="translate(854.6875,119.6875)"/>
<path d="M0 0 C7.47322457 5.03630352 11.91879721 11.36950138 14.609375 19.94140625 C15.10372738 22.5466433 15.2084019 25.03562136 15.25 27.6875 C15.27578125 28.66074219 15.3015625 29.63398437 15.328125 30.63671875 C14.41334512 40.0132125 9.66580846 47.44838964 4.875 55.375 C3.59921155 57.50640706 2.32566342 59.63915719 1.0546875 61.7734375 C0.21139893 63.17215088 0.21139893 63.17215088 -0.64892578 64.59912109 C-2.11327724 67.02372108 -2.11327724 67.02372108 -3 70 C-2.17113281 69.67644531 -1.34226562 69.35289062 -0.48828125 69.01953125 C3.34541303 67.89904502 6.85510337 67.65455307 10.8125 67.6875 C11.51955078 67.69313965 12.22660156 67.6987793 12.95507812 67.70458984 C23.36289348 67.94590971 30.32757484 71.41927687 37.69140625 78.6640625 C45.30210361 87.01866261 47.38879457 95.2077036 47.2734375 106.328125 C46.57638252 115.6885776 42.55891495 123.36346476 36 130 C27.62579843 136.99636219 19.12866446 139.63888189 8.27734375 139.34765625 C-2.11416669 138.24533869 -10.71807734 133.32938563 -17.25 125.25 C-21.14783331 119.72718442 -23.40890934 113.5292247 -25 107 C-25.27674561 107.48355957 -25.55349121 107.96711914 -25.83862305 108.46533203 C-27.11561619 110.68870864 -28.40147558 112.9068359 -29.6875 115.125 C-30.12255859 115.88554687 -30.55761719 116.64609375 -31.00585938 117.4296875 C-36.65089466 127.13078517 -43.17380487 134.424411 -54.4375 137.4375 C-64.72101792 139.15141965 -73.34169384 136.68974405 -82 131 C-84.81555977 128.58955674 -86.9484412 126.08019553 -89 123 C-89.43183594 122.35675781 -89.86367188 121.71351563 -90.30859375 121.05078125 C-94.01501512 114.31766284 -94.34804284 105.48546644 -93 98 C-90.57106974 90.73940854 -86.381225 84.06892458 -82.625 77.4375 C-82.01068115 76.34687256 -81.3963623 75.25624512 -80.76342773 74.13256836 C-75.46484943 64.75556353 -70.05024975 55.44820393 -64.59765625 46.16015625 C-62.0349782 41.78836219 -59.50580619 37.39844419 -56.99609375 32.99609375 C-56.32224898 31.81693891 -55.64833991 30.63782082 -54.97436523 29.45874023 C-53.69482822 27.21721669 -52.4193407 24.97337476 -51.14868164 22.72680664 C-44.47564969 11.05703776 -38.18589002 1.01808993 -24.890625 -3.3046875 C-16.06909417 -5.42662329 -8.01947417 -4.19954712 0 0 Z M-38.42431641 10.87817383 C-41.46183912 14.96852243 -43.92547768 19.38734809 -46.4375 23.8125 C-47.04094238 24.86147461 -47.64438477 25.91044922 -48.26611328 26.99121094 C-49.54121312 29.20874729 -50.81329362 31.42802222 -52.08251953 33.64892578 C-53.94005303 36.89523401 -55.80931502 40.13442964 -57.68359375 43.37109375 C-60.80277813 48.75817477 -63.91030336 54.15185375 -67.01318359 59.54833984 C-68.75783585 62.57929261 -70.50659687 65.6078119 -72.25695801 68.63546753 C-73.71718747 71.1634787 -75.17350513 73.69372901 -76.62896729 76.2244873 C-77.32400987 77.43134381 -78.0205373 78.63734662 -78.71868896 79.84240723 C-87.87178996 94.90279823 -87.87178996 94.90279823 -89 112 C-85.93264372 121.05121525 -80.02264187 127.05714008 -72 132 C-64.89876481 134.3670784 -56.37798242 134.12463656 -49.5625 131 C-40.5587589 126.36122104 -35.66359002 116.47171062 -30.9375 108 C-29.94858664 106.25610185 -28.95965587 104.51221313 -27.96940613 102.76907349 C-27.29604015 101.5826265 -26.62385282 100.39550981 -25.95283508 99.20773315 C-22.71577003 93.47814627 -19.39270902 87.80074307 -16.0625 82.125 C-13.70460173 78.08550249 -11.35203035 74.04291632 -9 70 C-8.65954651 69.41573242 -8.31909302 68.83146484 -7.96832275 68.22949219 C-5.78386298 64.48008159 -3.60712366 60.72635004 -1.43942261 56.96722412 C-0.74134391 55.75904102 -0.04100069 54.55216291 0.66183472 53.34674072 C10.08247884 37.90458751 10.08247884 37.90458751 10.375 20.49609375 C7.61024946 12.41166695 2.42460044 6.52083003 -5.125 2.5 C-17.54042321 -2.28176058 -30.08819773 0.78923146 -38.42431641 10.87817383 Z " fill="#020202" transform="translate(1070,78)"/>
<path d="M0 0 C8.14847503 7.50208158 12.88509029 17.57694515 13.5625 28.51953125 C14.11862555 43.04657828 11.1137478 54.20678395 1.25 65.3125 C-1.2551521 67.647729 -3.82789389 69.53382672 -6.75 71.3125 C-7.34039062 71.68890625 -7.93078125 72.0653125 -8.5390625 72.453125 C-21.23660416 79.69342535 -36.50447641 79.56913487 -50.3125 76.359375 C-62.3825664 72.68349114 -71.56164132 65.25076111 -77.75 54.3125 C-83.29527128 41.92101404 -83.65818347 28.11679742 -79.1328125 15.34765625 C-73.76388573 3.56331698 -64.90614843 -4.06663884 -53.015625 -8.91015625 C-34.71140405 -15.19039758 -15.26228886 -11.73500432 0 0 Z M-51.625 18.25 C-56.48733938 25.25748911 -56.61109456 32.490752 -55.390625 40.7421875 C-53.67167741 47.45537471 -49.28835746 51.37946354 -43.75 55.3125 C-37.68183164 57.33522279 -30.47532057 57.12000239 -24.375 55.3125 C-18.95590061 51.18366237 -13.94431483 46.21298566 -12.75 39.3125 C-12.13180382 31.23015738 -12.09242502 23.87317992 -17.33203125 17.33984375 C-21.40166784 13.02195047 -24.78029003 10.67373233 -30.80078125 9.94140625 C-40.04935195 9.753112 -45.37949002 11.40881999 -51.625 18.25 Z " fill="#000000" transform="translate(379.75,123.6875)"/>
<path d="M0 0 C8.46798634 7.92348168 12.52068783 17.91566424 13.76171875 29.3359375 C13.43171875 30.9859375 13.10171875 32.6359375 12.76171875 34.3359375 C-7.36828125 38.2959375 -27.49828125 42.2559375 -48.23828125 46.3359375 C-46.05539642 51.79314957 -45.18987251 52.62657625 -40.23828125 55.3359375 C-31.10919034 58.91597315 -22.60963382 57.94848981 -13.6484375 54.50390625 C-11.2513042 53.34224846 -9.30401012 52.00865067 -7.23828125 50.3359375 C-2.98919789 51.93440219 -0.41602386 55.1489767 2.51171875 58.4609375 C3.01832031 59.02425781 3.52492188 59.58757812 4.046875 60.16796875 C5.29056407 61.55245281 6.5268818 62.94355238 7.76171875 64.3359375 C1.73341796 72.32851608 -7.0792263 76.76827507 -16.86328125 78.7734375 C-33.09669606 80.9031858 -48.47385243 78.5441298 -62.23828125 69.3359375 C-71.54041826 62.16096794 -76.49153848 51.77710262 -78.23828125 40.3359375 C-79.52367019 26.58941693 -75.99633148 15.01585749 -67.5625 4.18359375 C-50.15593824 -15.23571819 -20.00605026 -14.87360805 0 0 Z M-48.23828125 16.3359375 C-51.67457506 21.4791485 -52.3191309 25.12587128 -52.23828125 31.3359375 C-47.02333942 30.36001305 -41.80892149 29.38135189 -36.5949707 28.40014648 C-34.82102375 28.06671001 -33.04693577 27.73402296 -31.27270508 27.40209961 C-28.72309556 26.92498387 -26.1740047 26.4451789 -23.625 25.96484375 C-22.83115402 25.81688858 -22.03730804 25.66893341 -21.21940613 25.51649475 C-18.14731718 24.93542423 -15.20840639 24.32597921 -12.23828125 23.3359375 C-12.86777678 17.95745367 -15.14573247 16.1459153 -19.19921875 12.8515625 C-28.32036858 6.07185726 -40.48382047 8.58147672 -48.23828125 16.3359375 Z " fill="#000000" transform="translate(548.23828125,122.6640625)"/>
<path d="M0 0 C1.794375 -0.03867188 1.794375 -0.03867188 3.625 -0.078125 C7.29554266 0.27873331 9.09252043 1.0278549 12 3.25 C14.5018939 7.00284085 14.29930669 9.14806957 14.3125 13.625 C14.32925781 14.93210937 14.34601562 16.23921875 14.36328125 17.5859375 C13.98253396 21.42616284 13.4017868 23.26809765 11 26.25 C6.45040634 29.47427725 0.34566847 28.90136945 -5 29.25 C-5.33 33.21 -5.66 37.17 -6 41.25 C-5.21625 41.085 -4.4325 40.92 -3.625 40.75 C2.56110233 39.89674451 9.38853908 39.01915886 15 42.25 C17.69323369 44.36611218 18.33373928 45.94844016 19 49.25 C19.58270589 55.31238247 19.07367577 59.95055901 16 65.25 C12.26720094 68.05122792 9.62386803 68.61795582 5 68.5 C3.989375 68.48453125 2.97875 68.4690625 1.9375 68.453125 C-0.79703694 68.26403468 -3.32286127 67.81319234 -6 67.25 C-5.99333817 67.86530075 -5.98667633 68.4806015 -5.97981262 69.11454773 C-5.91341004 75.52219413 -5.86817885 81.92974267 -5.83520508 88.33764648 C-5.82012457 90.7286374 -5.79965723 93.11960068 -5.77368164 95.51049805 C-5.73726694 98.94847435 -5.72026601 102.38608469 -5.70703125 105.82421875 C-5.69154739 106.89210129 -5.67606354 107.95998383 -5.66011047 109.06022644 C-5.65799428 118.40556182 -5.65799428 118.40556182 -9 122.25 C-14.67296525 125.49028744 -21.69432371 125.01090001 -28 124.25 C-31.12393909 122.59903808 -32.4277775 120.394445 -34 117.25 C-34.09016377 115.64645548 -34.11756075 114.03917778 -34.11352539 112.43310547 C-34.11344986 111.43221893 -34.11337433 110.4313324 -34.11329651 109.40011597 C-34.10813522 108.31674957 -34.10297394 107.23338318 -34.09765625 106.1171875 C-34.0962413 105.01021515 -34.09482635 103.9032428 -34.09336853 102.76272583 C-34.08775772 99.21679007 -34.07520337 95.67091677 -34.0625 92.125 C-34.05748639 89.72526133 -34.05292325 87.32552167 -34.04882812 84.92578125 C-34.03778478 79.03383275 -34.0210361 73.14192084 -34 67.25 C-34.76904663 67.27320313 -35.53809326 67.29640625 -36.33044434 67.3203125 C-37.33192505 67.33835937 -38.33340576 67.35640625 -39.36523438 67.375 C-40.36115601 67.39820313 -41.35707764 67.42140625 -42.38317871 67.4453125 C-45 67.25 -45 67.25 -47.15625 65.25 C-48.19802844 61.54589888 -48.51409808 58.07057995 -48.5 54.25 C-48.52835938 53.55132812 -48.55671875 52.85265625 -48.5859375 52.1328125 C-48.60060086 48.24702125 -48.11467657 46.40323682 -45.76953125 43.26953125 C-42.82862962 41.12503739 -41.73842586 40.67250553 -38.1875 40.9375 C-37.39730469 40.98261719 -36.60710938 41.02773437 -35.79296875 41.07421875 C-35.20128906 41.13222656 -34.60960937 41.19023438 -34 41.25 C-34.03480469 40.34378906 -34.06960938 39.43757813 -34.10546875 38.50390625 C-34.38225353 26.04859111 -32.37942189 17.88201621 -23.75 8.625 C-16.82803859 1.91099451 -9.46577414 0.12240225 0 0 Z " fill="#FCFCFC" transform="translate(619,75.75)"/>
<path d="M0 0 C2.375 1.6875 2.375 1.6875 4.375 4.6875 C4.60205078 7.1394043 4.60205078 7.1394043 4.5703125 10.01171875 C4.56386719 11.03974609 4.55742188 12.06777344 4.55078125 13.12695312 C4.53402344 14.19880859 4.51726563 15.27066406 4.5 16.375 C4.49097656 17.45845703 4.48195313 18.54191406 4.47265625 19.65820312 C4.4490734 22.3348571 4.41616126 25.01106797 4.375 27.6875 C6.21964844 27.60048828 6.21964844 27.60048828 8.1015625 27.51171875 C9.73433688 27.46479995 11.36715252 27.41930206 13 27.375 C13.80824219 27.33310547 14.61648438 27.29121094 15.44921875 27.24804688 C19.68928762 27.16186661 22.50850622 27.31751489 25.8984375 30.01953125 C29.9172442 34.34893973 29.65711464 38.24343825 29.58984375 43.88671875 C29.28235785 47.8952168 28.49239663 50.25585719 26.375 53.6875 C21.93775744 56.21706441 17.5119565 55.92036745 12.5625 55.8125 C11.38010742 55.79896484 11.38010742 55.79896484 10.17382812 55.78515625 C8.24075334 55.76172504 6.3078362 55.72585838 4.375 55.6875 C4.45569751 59.95911792 4.56855745 64.22928934 4.6875 68.5 C4.72133789 70.32241211 4.72133789 70.32241211 4.75585938 72.18164062 C4.79130859 73.34501953 4.82675781 74.50839844 4.86328125 75.70703125 C4.88946533 76.78057861 4.91564941 77.85412598 4.94262695 78.96020508 C5.16102476 81.69758501 5.16102476 81.69758501 6.74926758 83.5402832 C9.07173465 85.17915882 10.93609353 85.02395334 13.75 85.0625 C17.38993565 85.3469453 19.28291939 85.63875144 22.5625 87.375 C25.525534 92.79020006 25.21258862 98.65686195 24.375 104.6875 C23.02401768 107.80515151 22.10272736 109.26320666 19.1640625 110.9765625 C9.44512408 113.45393896 -1.83246419 112.51982049 -10.625 107.6875 C-16.86701783 103.6106491 -20.48486077 98.8333886 -22.625 91.6875 C-23.50851635 87.25023994 -23.74197534 83.05973017 -23.72265625 78.5390625 C-23.7212413 77.88167084 -23.71982635 77.22427917 -23.71836853 76.54696655 C-23.71281762 74.46876269 -23.70027465 72.39067073 -23.6875 70.3125 C-23.68247864 68.89453282 -23.67791685 67.47656393 -23.67382812 66.05859375 C-23.66286437 62.60152678 -23.64563421 59.14452433 -23.625 55.6875 C-24.24568359 55.70272705 -24.86636719 55.7179541 -25.50585938 55.73364258 C-26.72499023 55.75140747 -26.72499023 55.75140747 -27.96875 55.76953125 C-29.17821289 55.79237183 -29.17821289 55.79237183 -30.41210938 55.81567383 C-32.625 55.6875 -32.625 55.6875 -35.125 54.375 C-38.28052314 50.82503647 -37.79029508 46.83342211 -37.8125 42.3125 C-37.82667969 41.00539062 -37.84085938 39.69828125 -37.85546875 38.3515625 C-37.63845318 34.90138284 -37.2729888 32.69877521 -35.625 29.6875 C-32.42119983 27.55163322 -31.60560033 27.45617825 -27.9375 27.5625 C-26.72513672 27.58957031 -26.72513672 27.58957031 -25.48828125 27.6171875 C-24.87339844 27.64039062 -24.25851562 27.66359375 -23.625 27.6875 C-23.64856567 26.72710815 -23.64856567 26.72710815 -23.67260742 25.74731445 C-23.73517115 22.83163369 -23.77405808 19.91609445 -23.8125 17 C-23.83763672 15.99259766 -23.86277344 14.98519531 -23.88867188 13.94726562 C-23.98452942 4.26565389 -23.98452942 4.26565389 -20.625 0.6875 C-14.48395596 -2.7403003 -6.44711295 -2.33429952 0 0 Z " fill="#FBFBFB" transform="translate(912.625,88.3125)"/>
<path d="M0 0 C2.58546674 1.95656943 3.22379139 2.73328638 4.3125 5.75 C4.51693641 8.62015675 4.61338256 11.39565655 4.61547852 14.26635742 C4.62391785 15.12364944 4.63235718 15.98094147 4.64105225 16.86421204 C4.66682019 19.6946366 4.67896594 22.524957 4.69140625 25.35546875 C4.70757822 27.32034637 4.7247579 29.28521592 4.74290466 31.25007629 C4.78858982 36.41995533 4.82340137 41.58984501 4.85510254 46.75982666 C4.90698924 55.04625954 4.9719458 63.33257458 5.04331779 71.61886024 C5.06622489 74.5199999 5.08244569 77.42112436 5.09803772 80.3223114 C5.11143778 82.08881805 5.125052 83.8553231 5.13891602 85.62182617 C5.14152939 86.43481171 5.14414276 87.24779724 5.14683533 88.0854187 C4.8402129 91.71711873 4.8402129 91.71711873 6.3125 94.75 C8.82413415 95.20461478 11.34202 95.58525003 13.8671875 95.95703125 C16.3125 96.75 16.3125 96.75 18.109375 98.328125 C19.80571182 101.74282898 19.7486468 104.96094239 19.6875 108.6875 C19.69910156 109.39068359 19.71070313 110.09386719 19.72265625 110.81835938 C19.69747022 115.29727589 19.07496524 118.1992215 16.3125 121.75 C9.15749089 125.32750456 -4.2960521 122.97618905 -11.6875 120.75 C-16.80089074 118.01068353 -19.66598757 115.30378107 -21.8125 109.9375 C-23.59367176 103.44894573 -23.84324046 97.09821656 -23.86450195 90.42163086 C-23.87107315 89.5134108 -23.87764435 88.60519073 -23.88441467 87.66944885 C-23.90401693 84.68457949 -23.91577636 81.69975995 -23.92578125 78.71484375 C-23.92985678 77.6916913 -23.9339323 76.66853886 -23.93813133 75.61438179 C-23.95892884 70.20638358 -23.97326194 64.79841032 -23.98266602 59.39038086 C-23.99376197 53.80952123 -24.02821662 48.22905681 -24.06783772 42.64833736 C-24.09397036 38.34948483 -24.10235451 34.05072743 -24.10594749 29.75180244 C-24.11081626 27.694121 -24.12243847 25.63644388 -24.14098549 23.57884026 C-24.16532197 20.70189648 -24.16442276 17.82598971 -24.1574707 14.94897461 C-24.17028076 14.10257416 -24.18309082 13.25617371 -24.19628906 12.38412476 C-24.14947629 7.06454452 -23.30624375 3.92114363 -19.6875 -0.25 C-13.47226674 -2.32174442 -6.16307806 -2.089179 0 0 Z " fill="#FDFDFD" transform="translate(669.6875,77.25)"/>
<path d="M0 0 C8.58 0 17.16 0 26 0 C26 6.93 26 13.86 26 21 C32.93 21 39.86 21 47 21 C47 27.6 47 34.2 47 41 C40.07 41 33.14 41 26 41 C26.02809813 46.60685482 26.07116358 52.20943514 26.15258789 57.81518555 C26.17575277 59.72102307 26.19016007 61.62698833 26.19555664 63.53295898 C26.20485741 66.27668723 26.24587071 69.01841063 26.29296875 71.76171875 C26.2890361 72.61086349 26.28510345 73.46000824 26.28105164 74.33488464 C26.38716768 78.65909317 26.61928994 80.49557633 29.30200195 84.05004883 C32.25026858 86.18087912 34.11871745 86.49996193 37.7421875 86.37109375 C40.91029137 85.85038464 43.92809237 84.92157229 47 84 C48.00605593 86.60197202 49.00502525 89.20629362 50 91.8125 C50.28617188 92.55048828 50.57234375 93.28847656 50.8671875 94.04882812 C51.13789062 94.76103516 51.40859375 95.47324219 51.6875 96.20703125 C51.93886719 96.8616333 52.19023438 97.51623535 52.44921875 98.19067383 C53 100 53 100 53 103 C41.30259727 108.58875908 30.40008861 109.54511859 17.796875 106.03515625 C10.99990579 103.5195182 6.72551057 99.34515901 3.0078125 93.22265625 C0.30844781 87.26940622 -0.28798427 81.9372055 -0.22705078 75.49438477 C-0.22734283 74.67406265 -0.22763489 73.85374054 -0.22793579 73.00856018 C-0.22655164 70.31939816 -0.21103384 67.63051938 -0.1953125 64.94140625 C-0.19157911 63.06811169 -0.18873368 61.19481516 -0.18673706 59.32151794 C-0.17912624 54.40766951 -0.15949978 49.4939406 -0.1373291 44.58013916 C-0.11681558 39.55930193 -0.10772359 34.53844525 -0.09765625 29.51757812 C-0.07625137 19.67832464 -0.04109014 9.83919099 0 0 Z " fill="#000000" transform="translate(11,94)"/>
<path d="M0 0 C0 7.92 0 15.84 0 24 C-2.97 24.12375 -2.97 24.12375 -6 24.25 C-13.68081817 24.85945622 -18.31624546 26.43293044 -23.875 31.75 C-28.29381192 38.50818294 -28.31809009 45.78990251 -28.4140625 53.625 C-28.43342865 54.61250244 -28.4527948 55.60000488 -28.4727478 56.61743164 C-28.53211659 59.74486893 -28.57875713 62.87234389 -28.625 66 C-28.66321912 68.13152571 -28.7022731 70.26303662 -28.7421875 72.39453125 C-28.83934066 77.59627342 -28.91924805 82.79787441 -29 88 C-37.58 88 -46.16 88 -55 88 C-55 59.29 -55 30.58 -55 1 C-46.75 1 -38.5 1 -30 1 C-29.67 3.97 -29.34 6.94 -29 10 C-27.2675 8.6078125 -27.2675 8.6078125 -25.5 7.1875 C-17.53270801 1.21906925 -9.87713676 0 0 0 Z " fill="#000000" transform="translate(132,112)"/>
<path d="M0 0 C0 7.92 0 15.84 0 24 C-2.6915625 24.12375 -2.6915625 24.12375 -5.4375 24.25 C-11.97298341 24.82802035 -18.16612048 25.69040929 -22.62890625 30.90234375 C-25.81365415 35.77473584 -27.09588582 39.95278907 -27.20532227 45.76855469 C-27.22526749 46.70922791 -27.24521271 47.64990112 -27.26576233 48.61907959 C-27.29083107 50.13021332 -27.29083107 50.13021332 -27.31640625 51.671875 C-27.33718735 52.70942932 -27.35796844 53.74698364 -27.37937927 54.815979 C-27.44471408 58.12725258 -27.50368517 61.43860482 -27.5625 64.75 C-27.60570049 66.99610185 -27.64931527 69.24219578 -27.69335938 71.48828125 C-27.8011579 76.99210807 -27.90035123 82.49599543 -28 88 C-36.58 88 -45.16 88 -54 88 C-54 59.29 -54 30.58 -54 1 C-45.75 1 -37.5 1 -29 1 C-28.67 3.97 -28.34 6.94 -28 10 C-27.21625 9.2575 -26.4325 8.515 -25.625 7.75 C-18.25743196 1.6045404 -9.33317491 0 0 0 Z " fill="#000000" transform="translate(463,112)"/>
<path d="M0 0 C7.47322457 5.03630352 11.91879721 11.36950138 14.609375 19.94140625 C15.10372738 22.5466433 15.2084019 25.03562136 15.25 27.6875 C15.27578125 28.66074219 15.3015625 29.63398437 15.328125 30.63671875 C14.41334512 40.0132125 9.66580846 47.44838964 4.875 55.375 C3.59921155 57.50640706 2.32566342 59.63915719 1.0546875 61.7734375 C0.21139893 63.17215088 0.21139893 63.17215088 -0.64892578 64.59912109 C-2.11327724 67.02372108 -2.11327724 67.02372108 -3 70 C-2.17113281 69.67644531 -1.34226562 69.35289062 -0.48828125 69.01953125 C3.34541303 67.89904502 6.85510337 67.65455307 10.8125 67.6875 C11.51955078 67.69313965 12.22660156 67.6987793 12.95507812 67.70458984 C23.36289348 67.94590971 30.32757484 71.41927687 37.69140625 78.6640625 C45.30210361 87.01866261 47.38879457 95.2077036 47.2734375 106.328125 C46.57638252 115.6885776 42.55891495 123.36346476 36 130 C27.62579843 136.99636219 19.12866446 139.63888189 8.27734375 139.34765625 C-2.11416669 138.24533869 -10.71807734 133.32938563 -17.25 125.25 C-21.14783331 119.72718442 -23.40890934 113.5292247 -25 107 C-25.27674561 107.48355957 -25.55349121 107.96711914 -25.83862305 108.46533203 C-27.11561619 110.68870864 -28.40147558 112.9068359 -29.6875 115.125 C-30.12255859 115.88554687 -30.55761719 116.64609375 -31.00585938 117.4296875 C-36.65089466 127.13078517 -43.17380487 134.424411 -54.4375 137.4375 C-64.72101792 139.15141965 -73.34169384 136.68974405 -82 131 C-84.81555977 128.58955674 -86.9484412 126.08019553 -89 123 C-89.43183594 122.35675781 -89.86367188 121.71351563 -90.30859375 121.05078125 C-94.01501512 114.31766284 -94.34804284 105.48546644 -93 98 C-90.57106974 90.73940854 -86.381225 84.06892458 -82.625 77.4375 C-82.01068115 76.34687256 -81.3963623 75.25624512 -80.76342773 74.13256836 C-75.46484943 64.75556353 -70.05024975 55.44820393 -64.59765625 46.16015625 C-62.0349782 41.78836219 -59.50580619 37.39844419 -56.99609375 32.99609375 C-56.32224898 31.81693891 -55.64833991 30.63782082 -54.97436523 29.45874023 C-53.69482822 27.21721669 -52.4193407 24.97337476 -51.14868164 22.72680664 C-44.47564969 11.05703776 -38.18589002 1.01808993 -24.890625 -3.3046875 C-16.06909417 -5.42662329 -8.01947417 -4.19954712 0 0 Z M-38.42431641 10.87817383 C-41.46183912 14.96852243 -43.92547768 19.38734809 -46.4375 23.8125 C-47.04094238 24.86147461 -47.64438477 25.91044922 -48.26611328 26.99121094 C-49.54121312 29.20874729 -50.81329362 31.42802222 -52.08251953 33.64892578 C-53.94005303 36.89523401 -55.80931502 40.13442964 -57.68359375 43.37109375 C-60.80277813 48.75817477 -63.91030336 54.15185375 -67.01318359 59.54833984 C-68.75783585 62.57929261 -70.50659687 65.6078119 -72.25695801 68.63546753 C-73.71718747 71.1634787 -75.17350513 73.69372901 -76.62896729 76.2244873 C-77.32400987 77.43134381 -78.0205373 78.63734662 -78.71868896 79.84240723 C-87.87178996 94.90279823 -87.87178996 94.90279823 -89 112 C-85.93264372 121.05121525 -80.02264187 127.05714008 -72 132 C-64.89876481 134.3670784 -56.37798242 134.12463656 -49.5625 131 C-40.5587589 126.36122104 -35.66359002 116.47171062 -30.9375 108 C-29.94858664 106.25610185 -28.95965587 104.51221313 -27.96940613 102.76907349 C-27.29604015 101.5826265 -26.62385282 100.39550981 -25.95283508 99.20773315 C-22.71577003 93.47814627 -19.39270902 87.80074307 -16.0625 82.125 C-13.70460173 78.08550249 -11.35203035 74.04291632 -9 70 C-8.65954651 69.41573242 -8.31909302 68.83146484 -7.96832275 68.22949219 C-5.78386298 64.48008159 -3.60712366 60.72635004 -1.43942261 56.96722412 C-0.74134391 55.75904102 -0.04100069 54.55216291 0.66183472 53.34674072 C10.08247884 37.90458751 10.08247884 37.90458751 10.375 20.49609375 C7.61024946 12.41166695 2.42460044 6.52083003 -5.125 2.5 C-17.54042321 -2.28176058 -30.08819773 0.78923146 -38.42431641 10.87817383 Z M-13 83 C-18.32817412 91.16986698 -21.83643316 99.05155274 -20 109 C-17.37143133 118.87893343 -12.2155896 125.48513275 -4.015625 131.44140625 C3.0448539 135.36845556 12.18217984 135.07550841 20 134 C27.67654522 131.79555372 34.04879167 126.77374137 38.24609375 119.984375 C39.26972948 118.01959433 40.15931856 116.04889697 41 114 C41.4125 113.05125 41.825 112.1025 42.25 111.125 C44.5079989 101.71667126 42.61636708 93.95085188 37.64453125 85.76953125 C32.09902635 77.84525749 25.49711526 73.80500729 16 72 C4.68879287 70.67497288 -5.64748676 74.07086536 -13 83 Z " fill="#EDEDED" transform="translate(1070,78)"/>
<path d="M0 0 C8.25 0 16.5 0 25 0 C25 28.71 25 57.42 25 87 C16.75 87 8.5 87 0 87 C0 58.29 0 29.58 0 0 Z " fill="#000000" transform="translate(146,113)"/>
<path d="M0 0 C7.23883188 5.81744181 10.21360396 13.48708698 11.75 22.375 C12.00261958 25.23266414 12.03431318 28.06545999 12.0246582 30.93310547 C12.02976913 31.73605042 12.03488007 32.53899536 12.04014587 33.36627197 C12.05392091 35.99165532 12.05309426 38.61677256 12.05078125 41.2421875 C12.05467488 43.08627416 12.05901091 44.93035994 12.06376648 46.77444458 C12.07120277 50.629119 12.07095632 54.48370179 12.06567383 58.33837891 C12.05988333 63.25278062 12.07681274 68.16680494 12.1000185 73.08114433 C12.11482423 76.88695429 12.11561826 80.69267479 12.11250877 84.49850845 C12.11301857 86.30921297 12.11819146 88.11992295 12.12832069 89.93059921 C12.19939294 104.41060727 11.7424654 116.27917293 1.05078125 127.09375 C-5.5623367 133.15701319 -13.01038749 135.75520888 -22.015625 135.5859375 C-30.91911856 134.7453979 -38.77700296 130.91636162 -45.0390625 124.55859375 C-53.67820781 114.02564565 -52.69600375 101.3657773 -52.6484375 88.5 C-52.65046196 86.56526581 -52.65337648 84.63053238 -52.65713501 82.69580078 C-52.66154085 78.65454799 -52.65518358 74.61349506 -52.64111328 70.57226562 C-52.62402253 65.41452115 -52.63387307 60.25724515 -52.65183067 55.09951782 C-52.66271566 51.10844447 -52.6592006 47.11748061 -52.6514473 43.12640381 C-52.64945831 41.22556502 -52.65185838 39.324716 -52.65888596 37.42388916 C-52.73126361 12.34963253 -52.73126361 12.34963253 -43.25 2.375 C-30.52535007 -9.46375658 -14.16592202 -9.44394802 0 0 Z M-41.609375 7.203125 C-46.34623594 13.47382662 -47.84420177 18.98567909 -47.78344727 26.76928711 C-47.79206284 27.67283432 -47.80067841 28.57638153 -47.80955505 29.50730896 C-47.83212348 32.47261802 -47.8254928 35.43697496 -47.81640625 38.40234375 C-47.82164596 40.47685525 -47.82792371 42.55136436 -47.83518982 44.62586975 C-47.84557729 48.96578207 -47.84105634 53.30536616 -47.82641602 57.64526367 C-47.80923318 63.19125338 -47.83272654 68.73620655 -47.86790562 74.28208065 C-47.88992582 78.56395764 -47.88842687 82.84558838 -47.8801403 87.12750435 C-47.87932328 89.17152607 -47.88613883 91.21556633 -47.90091133 93.25953484 C-47.91844223 96.12410008 -47.90374389 98.98682518 -47.88110352 101.85131836 C-47.89279572 102.68536194 -47.90448792 103.51940552 -47.91653442 104.37872314 C-47.79962274 111.69372826 -45.02911313 117.21569991 -40.22265625 122.6796875 C-39.59230469 123.19789063 -38.96195313 123.71609375 -38.3125 124.25 C-37.68472656 124.78367187 -37.05695313 125.31734375 -36.41015625 125.8671875 C-29.16313124 130.92568959 -22.89023368 131.23902337 -14.25 130.375 C-7.35219437 128.58480704 -0.8230349 124.42616134 3.03515625 118.3515625 C6.24581344 112.16040276 6.90369219 106.86317888 6.92700195 99.90966797 C6.93685875 98.63078453 6.93685875 98.63078453 6.94691467 97.32606506 C6.96661208 94.50643824 6.97830401 91.68686468 6.98828125 88.8671875 C6.99439454 87.41856512 6.99439454 87.41856512 7.00063133 85.94067764 C7.02147958 80.82633937 7.03578519 75.7120278 7.04516602 70.59765625 C7.05621173 65.33209342 7.0905941 60.06695534 7.13033772 54.80154228 C7.156568 50.73842621 7.16486367 46.67541023 7.16844749 42.61221695 C7.17329896 40.67227443 7.18487156 38.73233594 7.20348549 36.79247665 C7.50492369 19.93277934 7.50492369 19.93277934 -0.4375 5.5 C-7.85417894 -1.10474777 -14.8784739 -2.30877104 -24.72265625 -2.00390625 C-32.10296509 -1.2111156 -36.41997166 2.11448678 -41.609375 7.203125 Z " fill="#F5EBF1" transform="translate(1177.25,78.625)"/>
<path d="M0 0 C3.97459843 1.45959829 6.98764987 4.29303923 9 8 C10.53175995 13.68939409 9.88396235 17.95580729 7 23 C1.72724867 28.01554394 -1.93622488 28.29561932 -9.015625 28.2109375 C-14.25621893 27.84052903 -16.86012248 26.22986785 -20.375 22.4375 C-22.55453405 17.8269472 -22.80748663 14.01620485 -22 9 C-17.30640983 -0.56101701 -9.75132621 -1.11618954 0 0 Z " fill="#000000" transform="translate(165,74)"/>
<path d="M0 0 C2.1875 1.625 2.1875 1.625 4.1875 3.625 C4.4375 6.625 4.4375 6.625 4.1875 9.625 C2.1875 11.625 2.1875 11.625 -0.24267578 11.85205078 C-1.2376709 11.84157715 -2.23266602 11.83110352 -3.2578125 11.8203125 C-4.33417969 11.81386719 -5.41054688 11.80742187 -6.51953125 11.80078125 C-7.64746094 11.78402344 -8.77539062 11.76726562 -9.9375 11.75 C-11.07316406 11.74097656 -12.20882812 11.73195312 -13.37890625 11.72265625 C-16.19031299 11.69903098 -19.00130298 11.66609013 -21.8125 11.625 C-21.10808932 7.34577109 -20.31423243 5.67039022 -16.9375 2.875 C-16.23882813 2.28203125 -15.54015625 1.6890625 -14.8203125 1.078125 C-10.27363957 -2.21246319 -4.98865418 -2.4388976 0 0 Z " fill="#050505" transform="translate(837.8125,140.375)"/>
<path d="M0 0 C2.87305972 1.40460697 4.74510999 2.74510999 7 5 C7.125 8.625 7.125 8.625 7 12 C4.39048764 13.30475618 2.47298715 13.11301572 -0.4453125 13.09765625 C-2.05986328 13.09282227 -2.05986328 13.09282227 -3.70703125 13.08789062 C-4.83496094 13.07951172 -5.96289062 13.07113281 -7.125 13.0625 C-8.26066406 13.05798828 -9.39632812 13.05347656 -10.56640625 13.04882812 C-13.37765638 13.03701615 -16.1888023 13.02054507 -19 13 C-18.02746599 8.49964654 -16.13773284 5.63910533 -12.42578125 2.79296875 C-8.24821905 0.13622694 -5.02862761 -0.65185913 0 0 Z " fill="#050505" transform="translate(743,139)"/>
</svg>
